<svg id="Layer_1" data-name="Layer 1" xmlns="http://www.w3.org/2000/svg" viewBox="0 0 44 44"><defs><style>.cls-1{fill:none;}.cls-2{fill:#4a6885;}</style></defs><title>p</title>
    <rect class="cls-1" width="44" height="44"/>
    <path class="cls-2" d="M37,27.77V10.64a3.89,3.89,0,0,0-4.19-3.94,5.08,5.08,0,0,0-1.22.14V5.64c0-2.29-1.68-3.83-4.19-3.83a5.18,5.18,0,0,0-1.62.25A4,4,0,0,0,22,0a4,4,0,0,0-3.79,2.05,5.18,5.18,0,0,0-1.62-.25c-2.51,0-4.19,1.54-4.19,3.83v6.12a5.08,5.08,0,0,0-1.22-.14A3.89,3.89,0,0,0,7,15.55S7,24.7,7,27.91c0,4.25,2.76,8.64,5.86,8.64v6h0s0,.08,0,.12v0a1.48,1.48,0,0,0,.52,1h0l.09.07,0,0,.09.06,0,0,.08,0,0,0,.09,0,0,0L14,44H14a1.49,1.49,0,0,0,.3,0H30.74a1.48,1.48,0,0,0,1.07-.63h0l.06-.09,0,0,0-.08,0,0L32,43l0,0,0-.09v-.05a1.49,1.49,0,0,0,0-.3v-6C35,36.55,37,33.25,37,27.77Zm-6.42,5.9a1.49,1.49,0,0,0-1.49,1.49V41H15.82V35.16a1.49,1.49,0,0,0-1.49-1.49c-2.44,0-4.38-2-4.38-5.93V15.55c0-.26,0-1,1.22-1s1.22.7,1.22,1v5.12a1.49,1.49,0,0,0,1.55,1.48,4.39,4.39,0,0,1,2,.62c1.68.95,3,2.85,3.92,5.5a1.49,1.49,0,1,0,2.82-.94c-1.92-5.77-5.3-7.46-7.28-8V5.64c0-.32,0-.86,1.22-.86s1.22.54,1.22.86v8.11a1.49,1.49,0,1,0,3,0V3.83c0-.32,0-.86,1.22-.86s1.22.54,1.22.86v9.91a1.49,1.49,0,1,0,3,0V5.64c0-.32,0-.86,1.22-.86s1.22.54,1.22.86V16.19a1.49,1.49,0,0,0,3,0V10.64c0-.26,0-1,1.22-1s1.22.7,1.22,1V27.89C34,32.21,32.33,33.67,30.59,33.67Z"/>
</svg>