<svg id="Layer_1" data-name="Layer 1" xmlns="http://www.w3.org/2000/svg" viewBox="0 0 44 44"><defs><style>.cls-1{fill:#fff;}.cls-2{fill:none;}</style></defs><title>r</title><path class="cls-1" d="M12.68,44a1.39,1.39,0,0,1-1.39-1.39V31.74a.3.3,0,0,0-.2-.29,7.81,7.81,0,0,1-5-7.33V18.19a7.65,7.65,0,0,1,2.15-5.27.31.31,0,0,0,.08-.21V7.65a4.66,4.66,0,0,1,4.74-4.57,4.87,4.87,0,0,1,1.77.33l.11,0a.31.31,0,0,0,.13,0,.3.3,0,0,0,.16-.18,4.8,4.8,0,0,1,9.07,0,.3.3,0,0,0,.16.18.31.31,0,0,0,.13,0l.11,0a4.86,4.86,0,0,1,1.77-.33A4.7,4.7,0,0,1,31,6.31a.3.3,0,0,0,.16.18.31.31,0,0,0,.13,0l.11,0a4.87,4.87,0,0,1,1.77-.33,4.66,4.66,0,0,1,4.74,4.57V24.12a7.84,7.84,0,0,1-2.87,6.1.31.31,0,0,0-.11.24V42.61A1.39,1.39,0,0,1,33.55,44ZM14,13.18a5.23,5.23,0,0,0-5.17,5v5.92a4.92,4.92,0,0,0,4.81,5h.72a1.39,1.39,0,0,1,0,2.78.31.31,0,0,0-.31.3v8.7a.3.3,0,0,0,.3.3H31.86a.3.3,0,0,0,.3-.3V32.06a.3.3,0,0,0-.3-.3H31.8a7.43,7.43,0,0,1-1.46.15h-.72a1.39,1.39,0,0,1,0-2.78h.72a4.92,4.92,0,0,0,4.81-5V19.38a.3.3,0,0,0-.3-.3l-.1,0a4.89,4.89,0,0,1-1.56.26,4.71,4.71,0,0,1-4.54-3.22.3.3,0,0,0-.16-.18.31.31,0,0,0-.13,0l-.11,0a4.86,4.86,0,0,1-1.77.33l-.26,0h-.06a.3.3,0,0,0-.3.23,4.91,4.91,0,0,1-2,2.88.3.3,0,0,0,0,.46A7.86,7.86,0,0,1,26,25.24v2a1.39,1.39,0,1,1-2.78,0v-2a4.92,4.92,0,0,0-4.8-5h-4a1.39,1.39,0,1,1,0-2.78H21.1a2.13,2.13,0,0,0,0-4.26ZM33.18,8.94a1.91,1.91,0,0,0-2,1.79v4a2,2,0,0,0,3.93,0v-4A1.91,1.91,0,0,0,33.18,8.94ZM26.47,5.86a1.91,1.91,0,0,0-2,1.79v4a.3.3,0,0,0,.09.21,4.9,4.9,0,0,1,1,1.44.31.31,0,0,0,.28.18h.62a1.91,1.91,0,0,0,2-1.79v-4A1.91,1.91,0,0,0,26.47,5.86Zm-13.42,0a1.91,1.91,0,0,0-2,1.79v2.89a.3.3,0,0,0,.3.3l.1,0A7.8,7.8,0,0,1,14,10.4h.69a.3.3,0,0,0,.3-.3V7.65A1.91,1.91,0,0,0,13.05,5.86Zm6.71-3.08a1.91,1.91,0,0,0-2,1.79v5.53a.3.3,0,0,0,.3.3h3.32a.3.3,0,0,0,.3-.3V4.57A1.91,1.91,0,0,0,19.76,2.78Z"/><rect class="cls-2" width="44" height="44"/></svg>