<svg id="Layer_1" data-name="Layer 1" xmlns="http://www.w3.org/2000/svg" viewBox="0 0 44 44"><defs><style>.cls-1{fill:none;}.cls-2{fill:#4a6885;}</style></defs><title>s</title><rect class="cls-1" width="44" height="44"/><path class="cls-2" d="M16.54,1.23a3.8,3.8,0,0,1,2-1.05l.66-.12a3.78,3.78,0,0,1,4.39,3l1.19,5.79L26,3a3.78,3.78,0,0,1,4.39-3l.74.13a3.81,3.81,0,0,1,3.12,4.18L32.55,19a5.7,5.7,0,0,1,1.1,3.8V42.71A1.39,1.39,0,0,1,32.28,44h-14a1.39,1.39,0,0,1-1.39-1.39V36.81a5.25,5.25,0,0,1-4.43-3.37l0-.09L10,25.12a4.43,4.43,0,0,1,2.19-5.48l.36-.18v-.53a4.43,4.43,0,0,1,3-4.21,1.38,1.38,0,0,1,.29-.06l1.53-.16L15.48,4.54V4.49A3.79,3.79,0,0,1,16.54,1.23ZM24.38,17a1.39,1.39,0,0,1-.93-1L20.91,3.6a1,1,0,0,0-1.19-.81l-.66.12a1,1,0,0,0-.84,1.15l2.2,11.4a1.39,1.39,0,0,1-1.22,1.64l-2.86.3a1.67,1.67,0,0,0-1,1.54v1.31a3.82,3.82,0,0,1,3.19-2.55ZM30,17l1.51-13a1,1,0,0,0-.85-1.14l-.74-.13a1,1,0,0,0-1.19.81L26.17,16a1.38,1.38,0,0,1-.65.91l1.79-.2A5.71,5.71,0,0,1,30,17ZM14.91,21.29a1.38,1.38,0,0,1-.36.26l-1.13.56a1.67,1.67,0,0,0-.82,2.08l2.47,8.31a2.46,2.46,0,0,0,2.28,1.55h.93a1.39,1.39,0,0,1,1.39,1.39v5.79H31l-.1-18.63a2.95,2.95,0,0,0-3.27-3.14l-8.8,1a1.05,1.05,0,0,0-.94,1v.76a1.05,1.05,0,0,0,1.05,1.05h2.94a1.39,1.39,0,0,1,1.38,1.54,5.66,5.66,0,0,0,1,3.75,3.79,3.79,0,0,0,2.84,1.22,1.39,1.39,0,0,1-.16,2.77,6.48,6.48,0,0,1-4.82-2.21,7.62,7.62,0,0,1-1.62-4.3H18.93a3.83,3.83,0,0,1-3.82-3.82v-.76a3.86,3.86,0,0,1,0-.49A1.38,1.38,0,0,1,14.91,21.29Z"/></svg>